P1
7 49
1000001
1010011
1100111
1011001
1001011
1111010
1101011
1000000
0100101
1100101
1110101
1101111
1010011
0000100
1110101
1001111
1001000
1001010
0001001
1101101
0100011
0001101
1010101
0000000
0010000
1111101
1101100
0111001
1001000
1111111
1001011
1101011
0101000
0111111
0110100
0110001
1111101
1101100
1111000
1000000
0101010
1111111
1010100
0000100
1110001
1001111
0011101
1100000
1100101
