P1
3 34
011
001
110
011
000
111
111
111
001
110
001
110
101
100
111
001
011
000
101
100
001
000
010
100
101
110
000
011
000
010
000
001
110
011
