P1
80 18
00001000001011001111011110101010110010000001101111110101001001111011100100100011
01100011100110100011001110100100000010011110010000011011001101001111110011111111
11001111110100011000100011101010101001101010010001011110110111010101100010101000
00001010100110111111101011011011100000100010011011110000100001010111010001111000
01011100100100001101010100010100110000001101010010010001011000001000001010010010
00110000001011110111001100101100001101010101000100110111101110101111001110110110
00110101000010111101001110010111010110100001011010111001111010010110110011101011
00001001111111101110111100110001100000111111010111000010111110101110110101100011
10110001011011010000101110110011010100001101110011010101001011111110110111011001
01111111100000100010110110010111000000010001100010101101011010100000101011111010
01010100011111101100000111010000001100000000011000010011110010110101100011101111
10000000101011110101110100110101110100001101110010101000011011100100001110000110
11001000011100100010100000000000000101101110100111110010110111100111111011001010
10100111110000101110111100101011000111011100111111011110000111101110100010011001
11101101001001000110011110000000100011000011111100010001000001010001100100101001
10010010111110101101011111001101110011110110101011000010100000011010011111001011
11111111111000100101010110101011001110001111110000010001100111111001101011011000
00000000001101000010101011010100111010001101110000010000011000000101101110101100
