P1
26 35
11010001111101111111111010
10000111001010010100001001
01101100101100101000001000
10111100011010101000111000
11100101100111101110010110
11011110000000001010110110
11100011011011111000101111
00011001110111100101100001
00100100001110010010100001
10110001110100111111110111
10101010010011010111100100
11110111110010111110110001
00101101110110001101110011
01001101100100001101011100
10011111100111001110101011
01001000001111010111000011
10010110010100000000111111
11001111011100100111011001
00000000011011001011111110
01000100000110001011101000
01100101010011110111011101
10011000101010001101011000
00101010100000010101101001
00111101111000010011010110
10111110011000011100101011
01100010000011100111010010
00011010010000000011111011
00001001011100111011010000
00110011010001001001011100
01110100000101011011101010
11111100001100100001000100
10101000000100101101110111
11000000110110011011001011
11001010110101111110110110
01001101010000101011110001
