P1
49 43
1110011110000111110001101011010000010111110110010
1011110111101010111010101000010010001101110010010
1001100101101110100101000001110011011011011111111
0011111110010111000100001110100100011001111000001
1110100011100111001110010110110100100111110111001
0011001011001001010001111000010010111111101100011
1000100110111001110101111011000001100011110110010
0110010011010111101111110011010010011010111101001
1110100011000010001001001110110001111110100000110
0111010100111101100111000010100000011100001101001
0101100100010110001100011100101001000000111101011
1011111111100110110000100101110101000010000001110
1100100010011111100111100111001111010110000010000
1000100000001111101001011001111000100100100000011
1011001011111110110010001011001111100000010001101
1110011000101101110111001100100001011010010101100
1101011111001110010100001010100101111100011101000
0000001011101001000010101011011111111011011100010
0011010100101110000011100110001111101111100011100
1000101110011000010010110000101111110100101010101
0101010001101010010011100110010001000100001011111
0101010011111001101011011001010000111010010111111
1011101000110010010100000110000001000001111100111
0111001000100010110001010000101110101001010100001
1110110110010010101010010000011110101111100001100
0101000000111000100101000101010111101001001000010
1000100010010010100111101101000111101001000010101
0011001000010100000111110110101011010111100110111
1011010110110010110010001110101011111001111001001
0110010000010001111001110111100100100101111110011
0001000010111111100000111111110000001001110100010
1000110001100100110111110110001011001011101111000
0010111000001111110110110110000000101111101101010
0001101010011010110011010001100110100011100010001
1000110001000010001000100110100010011110001001100
1101110100110011101110000000111001100110001011001
1101010101111111000100101111001101111101110101000
0001011101000010010010111001110111101011011110011
1010100001110110101100001001100010110000110011110
0001011111001000010110110110000000000110110000001
0101101101111101101011101100011111010011110111100
1000011001011100000110000001100010110101101101001
1001011101001001010010010001011011101000010111111
