P1
90 1
001111110100110111010000011110001000110011000001010011011010011010101000110011100000000110
