P1
51 61
001101100110000110011101010111101000010011111111110
000100100101000001100111101011100010000001110011100
000011111001000001001100101100111010000101011011110
000100101010100000110100100111010000000010000011111
101001111110100101001011110010011100111001101011110
111010010111101011011000101110110111001011101100000
010111000100001100101110111010001110011111001111001
010101100001100111010010001111100000011010100000101
000100100001101101011001011010100000100000001111001
011100000100110100010110110100011010111101100010011
010001000110001100101000000001000101011001000100010
100001011010111010010001100101010110100010000101110
011110111010111111100111100001000101011001011001111
101111010111011001001000110011111110100101100010001
100001101000001110100111000111111111011100001010101
011110001010100111111111111101101110001001011011011
101011010100101011010101010001101111010001010110101
111111000011100101100110101111011110100010100110000
111100011110111110100101010011111001101100101001011
011011101001000011110101111010111000011011010010101
001011001011111111010100001000110100111100110110110
101111000011101011110011001000011000010000111010010
100010001001001100111111100110011011000010101110011
011000111001011101100010100011000110101011001100101
100101100011111010010001000111101100101111100010100
101101100000101000010101010100100001011011111010010
110000101011000101011010100111010000000110010110110
110110001001101000011111011100100000100100101011010
110100101001001011111000101000010001010110000011111
111010101111011000011001110110011111101110000010111
001010110100010111110010110000100010101111000101100
000011011001100111000000000000111110101010000110110
010000101111110110001110001111111001011101101111110
110111001001010110101110110111101000001100100100100
000001010110111100000111110110001110000100000011011
100000011010001010101111111000100011010110000010001
010110101101110111101110010000111000010001110001101
001100100111010010101111111101101000110010001011110
000101101010000110000100011000000001101111011010011
011101000000100110001010010001111111111100001100101
011000111101000011011111001100011000001111010000110
000010110001011001110010111101111011111101010010111
011101001011000101110010011111110000100111100110011
111000101010010010100010010101111111101100010000110
010101011111110010101111000101010000001110010011111
110010111010111000000111011010010010010100000011101
001101101010001110011111011101010011110001011111111
000100101000100011101011010010011010010010100111101
110111000110010010000001100101101000010101101110100
001001000100001100010010001011011101000010100111110
110100110000011110101000101011111010011101010010011
010000100101110000010101010001001010010101010000011
111001000101111001111000110010101000000001110011111
000010111001010111111010000010011111001010001011010
100110100011001110100000001111001010000110001011000
110001001111010001000101110000110010111101110010000
011001001101111001001101110001001011111011010101001
000011010111101000110011011101001110100001100111100
110100110101111000101101000100011001111011101101101
100010011011101010100100010011100101010101110010011
001111010011001100111100110011001111001010001111000
