P1
23 38
01000111000101001100011
01010011000111101011110
00111000000111111110011
01010101010011001001110
00010101100000110011001
01101111100001011001001
00001011000111010100001
11010111010110110111000
11001111101010010010011
01010000101000111110011
11010110001101001010001
11010011001101011110011
00011001110010101011000
01101010100111010110010
00111101101110010111100
00011100010110010111011
10110100111011000110100
10100000001111000111001
01111011111111000110010
01111110100001111111000
01110111010001000110011
11100011011111010111100
01001111111001001101000
11100001000010001100000
10001101111111100101000
01101000000110111010011
00000111111001101000011
11100011110000010010100
01110001010100010001100
11100001001011101111110
01111111100110101100010
01101011010001111100011
10011101000000100110011
00101111101100101010101
11001000110001110011001
11110111000100111100010
10111011100001111100100
10111011010110010011001
