P1
93 15
010100000100101110100010010101011001111010001101010011100000111010001111000111000110111001011
000010001001000010001001000001110100000110101010111111010111111001011101001011011001111110100
000011111010011111011101011101000001101000110011010111001011011110011100100011000011001010111
001001000110011000111101010010011100011111100110000110110011111111111010111001100100010000000
011111101111001010100101100110001111011011110110011101010011110111111101011110001000011000001
011111001011111110000111001001011111011111110011111010000011010100101010110000001010001010110
001110110111101001110010111100100101111011010110000110000100011011001111001011011111100000010
011111000010001010000011100101101100100110110111010100000111011010111001011010100011010100110
011010111000010111100001010011000101100100111110100111111010110101011110101100110111000100101
110100100111001100000110011101111101001101001000010001100110001100000110101000101100010001100
011110011011101001010110110110101011101010011111011000110000001111110110100001100110110001000
000101111100101000111100010111111011001011001101111001110010010111010101101001110101101100000
100100100110110010111010101101010010001000110101001000111100000001111000100001100010011110000
001111000100111100010011100111111000111110100000000000100100011111010000100000111000100001101
100101100100000111111000101000100101101101110010010001101100000010000111111111111101001010011
