P1
47 98
10001111110101111010000011110001010011100001101
01101100011101111110011001000011011010010111111
01101101110100000110001011111101110011010111011
10000010000101110111111001010111101100101001110
00111010000000101001011001001000101101010001111
11001101011111111000001111101111011111101111100
01110001011000001010101111001110010101000001111
10011011011001100100101001100000011100100100000
11001111110000001110111110011000111101111001101
10000010000001101101101001100101010100100101010
00010001011000001011111100110011110001010011111
00101101100110011100001010110101001100101001111
11110010011101010110101110111010011000101000010
11100100111110001111110001001011000111111100111
10110110101101100110000010001100010100000101110
00110010101011011101011111001101110000011100100
11000010110110110111110001001101010100101110110
00011001001111110101011001100110100001101011111
11111101011110101110001010000110001011011101000
01100110010000101000000110101101011010101100100
11011001110111111011100010001111100010011000000
00111010111111111110011100110111101001000101110
00000000010000011011100010100010011110000101001
00010001111111111101001101111101001101110100100
11011101001011110110111011000110000011010010010
01010000000110010000101101000111100001001110000
00010101001010100110010110101101110100011011101
11000010111110010001011110111101001001011000011
11100001111001101110011111111011101001111000011
01100000011010001111110001100111100111011011011
00010101110011100000000010101100101000010011010
11111011100111100011101001000100010011111011100
01111010101111000110110011101110101000100101111
01110011011100100111000110100010100101111110111
01100100010111010011100100111010110000000110010
01001010101000000101101111010001011010101001000
01011010101011011011100011001000011100101110110
00101101111000010001011001100111110000111111001
01100000110110000011001000010010101000000011001
00100100011010011100010001111100001110111000111
11000000101001110000001001111011100001000111110
11111111010110110101111110010111101100011110101
10001110001110110011000111101111110010000011010
10011100000001101110000100011000000111101100110
10001100110000110000101100001111010101111111111
11100100011101000000110111000001000011110100111
10110101011000110100011100001001101010001100001
11010000100110111111110011011011110001011000111
11000101101001010001101011100000010001001000111
00010000111000011000110011101000010111010111011
11001001001010010000000010000000001100011011111
11100011100111100011111010010010001110111001011
00000101111110001110001111000111111011000101011
00000100111011001110100001100010001101011110111
10111101000000010110101001100110010000110010111
10011011000010110010000111011000001011101101100
01100001100111110010010110100111011011100110100
11111100110001001101010110111111001010001010111
10101011110001001000100101010001000111101010111
01001010001001010011010111111000001001101101100
01101100011010110101011100000011101101001001101
01000100111010101110011001001000000110111001001
01101100011000110010010101001100100000001111100
01111001101101111110000101011111001001001111111
00000010111101000001011011000101011011011011100
00011111111110100001001100010110110110010100011
00101011001100110111011100110000100001101100110
00101101001101110110110111110100100101111111000
01011111100101001011100101100010111100011101011
00000111011100000000000011100011010011100110010
11001011001101110001000000110100101110011011110
10000111001010111110110111011100110010010100111
00011100111001110100000011010000111011010101110
10000110111001011110000100111100110010011100111
11100001010101100100111110111011111110111100011
01010011000110001100110100001111010111111000100
11000000100010100110010101111101100101111111001
11101000111100111100101110011010010101100001100
11101100110101001011011011001100001010101011101
11111001001001010000010001010111011001100010100
11010111111111011000110101001100110000110010000
00001011010000100110100101011101010000100011100
00010001111111100110100100101100000110011101000
00000010001010100001110011101010110110000010000
10000001101111111000010100001111010101000001001
10010011001101010110000110111000000000010001101
10000010001100010001011010010010011011111011110
00111111110011111001110101100110010100001111001
11101010000001001101000110101111101000010100010
00110100100001111111110101100010001110011010011
11010001010001010001011100010001001010100001010
01000000101000010010110100010100101001001010000
11100000110110110000110001110100101010111111010
01100100011110000111000001110000010001010111111
00000110100111111011010111101001010000110111001
11101000111011100011101001100000110110001001110
00011110001010100111010100000001101001111010110
11110000010110101011010111011100010110001111111
