P1
22 7
0101100110111001000110
0111010111001101011111
0101011100101001001101
1001111011110111011000
1111100110100010100111
0101100001101000111001
1110100110000001101111
