P1
82 61
0100010000011110011110100101101110101010111001101101001101011011100110011110011010
0011000100001110011110111110010101011110000111110011111111101100000110110111110000
1011000100011010011111111001010100010101101000101110111100101111000111001010110110
0111100101001001010100010000110000111101111011010000011011011000101100011101010100
1001111010010111010010000001110110100110000000001000101100011000101100011000011010
0010100101010100100011010010001111100110001101111010111101001011010010010001101001
0100011100100111101011101001111000100101011011011000110011101100001100011000001110
0011000010111100110000110100000011011010110000111000100001111110110100000101001111
1001011001001111110001110001001011110011010110111111010001110111001000011111110010
1100101010101011100001100010001111101100100010001100011001011001010101110110011101
1010000010110001101100100111100111110111101101111010001010111011001000010101111111
1010011101101111010110001011001111001101001111111000001001110001101110001000111110
0101010100110111100010100010101001111111101001010000110011100101101000100110011010
0000001001000000111111111011100010000001011000000011111011101010010111100100101001
0100101001000101010001111101110011100101111000111110011011101111100100110110101110
1100001011101101111101011101001000111100010101110100111110111001110110000010010111
1111011111000100100011011100110010110110100010100000100001011010100010101111011000
1110001010111110110100101011101010000111010000111001011101001000100001111111010100
1011101000010001110111000100000101101110000010001101101010110110111011011100000001
0100110100110110100010010111001110110011010000110000000111100010001111000100100100
0011101001001110101101111001100101011011000100010010001001110011011101101010100011
0101100111001000101100001000000001111100010111000111101111101101110111001010110110
0110010101101101100100110110010100001111001111111100110000110110010001000000011100
0000010001011110100011000001010011110011110111100000110100010101001101100001000101
0100110000110100101000101111100111110011001000000011110101111100100000110011110011
0100111110000011110101010010101001110011011011101111110101000000000010110110011011
1111101011001111011000110010111001011010010111010101100110011101101000110100000100
0101110101100000101111011110000111101101111001011110011101111110000010111111101010
1011101010001101101100000000111010110001110010110010000010111101110000000100101110
0000010110000110010100011100001111001111111001011000100011010010110101001000101000
0101101010101000010010011101000100000011100111011101010000011100001110111101101011
1010110100011011010110001100001111111100111110001111110100111111010001110100100111
1011001110101101010111101011110110001111001010100111010000011000011000101100100000
1010011111000001010001100100000110110000001000111010111010000111001101001101000101
0000100101101111001010011111111000110101010101101111011001011111010001110010001111
0010111111110100101000111111111001011111000001001100110101101001000101101011011111
1000001001111011100010001011000111110110111010101010110110101010001100100011000000
1010110101100010000111111010011010010000101001011011101101100111101001110101110100
0001100010011011010011010101000000111011001011100100000010110001010000001000010001
1101000100000010101000101010110100000000111110101110110011000101111110010001111000
1001010110001010001111111100001101101010101001000101001000010100000100011011101010
1111000000110010101111100000110101101100110101000011111011111110100000100011110110
1010010111000110101000010000111011010001101100100101011000010111111011100111010000
0101100010001110111101100101100000100000101010100001011101100001100000010010111111
0101010100110101000011100100010110110110110011000000101111000101011100101001010111
1011111000011111011000001011010011110110000100101000010010100110101000001111001011
0111011010001101110100110010000110011101111100001101010001010101001000011010101000
1011000001010010100000101100010111100001100011110011011101110111111010100010000011
0011011100001001110110101101010110111100000111100001101100101011111110111111010010
0000110011000011011101011101100111011000000010100101000111000100010110011110001110
0111000101001110011001101110001101100100101010010011100001101011011010010000011101
0001101101001110001000010000111000000010010001110101111100011110011010011110010100
0101111100011110101010100010100110111101111010100100011101010111000001000000011000
0001110100101001001001010000100111111111101010010011100010110000110110111010111011
1011001001110010101110111110011001101111000011101110011011111101101101110001101001
0110011000011000110101001010001011110111010100011011111110111000110001001110000010
1001110101100011111110101100110111110010001010011011110110110010110101001011111110
1010100010101100000101011001001101111000101000000110001111011001100000101001010100
0000001001011000001110111001100101101111100011001111101101110100010010110100111111
0000000010100011101010000001000111111010011111000001100001011010000101101001000001
1110001100000100000111000110010010010001010110011111111100010011000110100001001110
